<svg xmlns="http://www.w3.org/2000/svg" viewBox="0 0 512 512">
  <rect width="512" height="512" fill="#F0455A"/>
  <g transform="translate(126,126) scale(10.8)">
    <path d="M7 11c-2 0-3.2-1.5-3.2-3.2C3.8 6 5 4.8 6.6 4.8c.3-1.6 1.7-2.8 3.4-2.8 1.3 0 2.4.7 3 1.7.5-.3 1-.4 1.6-.4 1.7 0 3.1 1.3 3.3 3 1.3.3 2.3 1.5 2.3 2.9 0 1.6-1.3 2.8-2.9 2.8H7z" fill="#fff"/>
    <rect x="7" y="12" width="10" height="8" rx="1.5" fill="#fff"/>
    <path d="M9.5 16.2l1.6 1.6 3.4-3.4" stroke="#F0455A" stroke-width="1.6" stroke-linecap="round" stroke-linejoin="round" fill="none"/>
  </g>
</svg>
